<svg width="1200" height="360" viewBox="0 0 1200 360" fill="none" xmlns="http://www.w3.org/2000/svg">
  <defs>
    <linearGradient id="bg" x1="0" y1="0" x2="1200" y2="360" gradientUnits="userSpaceOnUse">
      <stop offset="0" stop-color="#050608"/>
      <stop offset="0.52" stop-color="#0b1220"/>
      <stop offset="1" stop-color="#120816"/>
    </linearGradient>
    <linearGradient id="accent" x1="90" y1="70" x2="1040" y2="305" gradientUnits="userSpaceOnUse">
      <stop offset="0" stop-color="#38bdf8"/>
      <stop offset="0.48" stop-color="#a78bfa"/>
      <stop offset="1" stop-color="#f97316"/>
    </linearGradient>
    <filter id="glow" x="-50%" y="-50%" width="200%" height="200%">
      <feGaussianBlur stdDeviation="7" result="blur"/>
      <feMerge>
        <feMergeNode in="blur"/>
        <feMergeNode in="SourceGraphic"/>
      </feMerge>
    </filter>
    <pattern id="grid" width="44" height="44" patternUnits="userSpaceOnUse">
      <path d="M 44 0 L 0 0 0 44" fill="none" stroke="#94a3b8" stroke-opacity="0.08" stroke-width="1"/>
    </pattern>
  </defs>

  <rect width="1200" height="360" fill="url(#bg)"/>
  <rect width="1200" height="360" fill="url(#grid)"/>
  <circle cx="1045" cy="72" r="135" fill="#38bdf8" fill-opacity="0.09"/>
  <circle cx="180" cy="294" r="170" fill="#f97316" fill-opacity="0.08"/>

  <path d="M86 262 C238 118 360 310 511 166 C655 28 781 255 924 132 C996 70 1068 83 1122 114" stroke="url(#accent)" stroke-width="2" stroke-opacity="0.72" filter="url(#glow)"/>
  <path d="M80 285 H1120" stroke="#94a3b8" stroke-opacity="0.12"/>

  <g font-family="ui-monospace, SFMono-Regular, Menlo, Consolas, monospace">
    <text x="82" y="86" fill="#64748b" font-size="18" letter-spacing="4">VANYAEREK // ПРАКТИЧНЫЕ СИСТЕМЫ</text>
    <text x="72" y="158" fill="#f8fafc" font-size="46" font-weight="800" letter-spacing="-1.2">Telegram · Инфраструктура · Автоматизация</text>
    <text x="76" y="206" fill="#cbd5e1" font-size="22">бэкенд, боты, Linux/VPS, приватность и технические медиа</text>
    <text x="84" y="316" fill="#38bdf8" font-size="18">root@github:~$ делать полезное, держать сигнал выше шума</text>
  </g>

  <g opacity="0.95">
    <rect x="885" y="238" width="230" height="42" rx="21" fill="#020617" stroke="#38bdf8" stroke-opacity="0.38"/>
    <text x="914" y="265" fill="#e2e8f0" font-family="ui-monospace, SFMono-Regular, Menlo, Consolas, monospace" font-size="15">ugduck.site</text>
  </g>
</svg>
